<svg version="1.1" xmlns="http://www.w3.org/2000/svg" x="0" y="0" viewBox="0 0 48 48" xml:space="preserve" enable-background="new 0 0 48 48" width="48" height="48"><title>ar</title><g class="nc-icon-wrapper" fill="#000000"><path d="M41.79 33.26c0-.02.01-.04.01-.05l.03-5.76c0-.5-.23-.93-.6-1.21v-4.69c.31-.28.5-.68.5-1.13l-.03-5.55v-.12-.01a1.506 1.506 0 0 0-.19-.73c-.07-.12-.15-.22-.25-.31-.01-.01-.03-.02-.04-.03a1.35 1.35 0 0 0-.27-.2c-.01-.01-.02-.02-.03-.02l-5.06-2.81c-.51-.28-1.11-.24-1.57.07l-3.8-2.21c-.02-.5-.28-.98-.74-1.26L24.86 4.3c-.02-.01-.04-.01-.05-.02-.09-.05-.18-.09-.27-.12l-.09-.03c-.11-.03-.23-.05-.35-.05h-.01c-.12 0-.24.02-.36.05l-.09.03c-.09.03-.18.07-.26.11-.02.01-.04.01-.06.02l-4.98 2.94c-.47.28-.73.76-.75 1.27l-4.1 2.39c-.43-.2-.94-.19-1.38.05L7.2 13.71h-.01l-.06.03c-.01.01-.02.02-.03.02a1.5 1.5 0 0 0-.25.19l-.06.06c-.07.07-.13.16-.19.25-.01.02-.02.03-.03.05 0 .01-.01.01-.01.02-.06.1-.1.21-.13.32-.01.03-.01.05-.02.08-.02.1-.04.19-.04.29 0 .02-.01.04-.01.05l-.02 5.91c0 .56.31 1.05.76 1.32v4.48c-.38.28-.62.73-.61 1.24l.1 5.51c0 .02.01.04.01.06.01.09.02.18.04.28.01.03.01.06.02.09.03.11.08.22.14.32 0 0 0 .01.01.01.04.07.1.13.15.2.03.04.06.09.1.12.02.02.05.03.07.05.08.07.16.13.25.18h.01l5.08 2.77c.23.13.48.19.73.19.3 0 .6-.1.85-.27l3.81 2.22c.03.49.29.96.75 1.22l4.91 2.9c.02.01.05.02.07.03.08.04.16.07.24.1l.11.03c.11.03.22.04.34.05h.02c.13 0 .25-.02.36-.05.02-.01.05-.01.07-.02.1-.03.2-.07.3-.13.01-.01.03-.01.04-.02l4.97-2.97c.52-.31.78-.88.73-1.45l3.74-2.18c.24.15.52.24.8.24.25 0 .5-.06.74-.19l4.99-2.76s.01 0 .01-.01c.06-.03.11-.08.17-.13.05-.04.11-.07.15-.11a.55.55 0 0 0 .07-.09c.06-.07.13-.14.17-.23l.01-.01c.06-.1.1-.21.13-.32.01-.03.01-.05.02-.08.01-.11.02-.21.02-.31zm-7.24 1.37c-.48.27-.76.76-.78 1.27l-3.91 2.28c-.44-.2-.96-.18-1.4.08l-2.68 1.6-.03-3.61c0-.62-.38-1.15-.91-1.38v-3.65c.45-.26.76-.75.76-1.31v-4.09l7.72 4.6c.09.4.34.77.73.98l3.12 1.77-2.62 1.46zm-14.41 3.7c-.51-.3-1.13-.26-1.6.04l-3.84-2.24a1.54 1.54 0 0 0-.79-1.22l-2.72-1.48 3.12-1.83c.48-.28.75-.79.75-1.31l7.49-4.33v3.95c0 .56.31 1.05.76 1.31v3.83c-.37.28-.61.72-.61 1.22l.03 3.59-2.59-1.53zM9.53 27.94c-.01-.61-.39-1.13-.91-1.36v-4.31c.45-.26.76-.74.76-1.3l.01-3.34 3.26 1.82c.23.13.49.19.74.19.3 0 .6-.1.85-.27l3.26 1.9c.02.5.29.98.76 1.25l3.62 2.09-7.57 4.37c-.46-.26-1.03-.28-1.52 0l-3.2 1.87-.06-2.91zm4.07-14.37c.54-.3.82-.88.77-1.46l3.95-2.3c.24.15.51.23.79.23.26 0 .53-.07.77-.21l2.69-1.58v3.61c0 .56.31 1.04.75 1.31v8.76l-3.55-2.05c-.5-.29-1.11-.26-1.57.04L14.9 18c-.04-.49-.32-.95-.78-1.2l-3.14-1.75 2.62-1.48zm14.59-3.74c.5.3 1.1.27 1.57-.01l3.84 2.24c.03.5.31.97.78 1.23l2.71 1.5-3.13 1.81c-.51.29-.77.83-.75 1.38l-3.56 2.08a1.52 1.52 0 0 0-1.49 0l-3.32 1.89v-8.76c.46-.26.77-.75.77-1.31V8.27l2.58 1.56zm7.36 18.94c-.57-.33-1.27-.23-1.74.18l-7.39-4.41 3.25-1.85c.5-.28.77-.8.76-1.34l3.6-2.1c.22.11.45.18.7.18.26 0 .52-.07.76-.2l3.19-1.84.02 3.05c0 .45.2.85.52 1.13v4.84c-.25.27-.41.63-.42 1.03l-.02 3.16-3.23-1.83z" id="Layer_1"/></g></svg>