<svg version="1.1" xmlns="http://www.w3.org/2000/svg" x="0" y="0" viewBox="0 0 48 48" xml:space="preserve" enable-background="new 0 0 48 48" width="48" height="48"><title>calendar</title><g class="nc-icon-wrapper"><path class="st23" d="M43 31.65c.07-.15.13-.31.17-.47.01-.03.01-.06.02-.1.02-.12.03-.23.03-.35V8.93c0-1.18-.96-2.13-2.13-2.13h-6.82v-.67A2.155 2.155 0 0 0 32.12 4c-1.18 0-2.13.96-2.13 2.13v.67h-12v-.67c0-1.18-.96-2.13-2.13-2.13s-2.13.96-2.13 2.13v.67H6.92c-1.18 0-2.13.96-2.13 2.13v32.94c0 1.18.96 2.13 2.13 2.13h23.35c.59 0 1.14-.24 1.55-.66l5.36-5.64 5.42-5.46c.01-.01.01-.01.01-.02.12-.13.22-.27.31-.42.03-.05.05-.1.08-.15zm-8.84 3.03l-.03.03-1.72 1.74v-3.57h3.54l-1.79 1.8zM13.82 11.06c.27.86 1.07 1.49 2.03 1.49s1.75-.63 2.03-1.49H30.1c.27.86 1.07 1.49 2.03 1.49.95 0 1.75-.63 2.03-1.49h4.79v5.73H9.06v-5.73h4.76zM9.06 21.07h29.89v7.53h-8.67c-1.18 0-2.13.96-2.13 2.13v8.99H9.06V21.07z" id="Layer_1" style="" fill="#252830"/></g></svg>