<svg version="1.1" xmlns="http://www.w3.org/2000/svg" x="0" y="0" viewBox="0 0 48 48" xml:space="preserve" enable-background="new 0 0 48 48" width="48" height="48"><title>camera</title><g class="nc-icon-wrapper" fill="#000000"><g id="Layer_1"><path d="M36.38 10.67h-2.65a7.635 7.635 0 0 0-5.96-2.88h-7.51a7.67 7.67 0 0 0-5.97 2.88h-2.65C7.42 10.67 4 14.09 4 18.3v14.29c0 4.2 3.42 7.62 7.62 7.62h24.75c4.2 0 7.62-3.42 7.62-7.62V18.3c.01-4.21-3.41-7.63-7.61-7.63zm4.02 21.91c0 2.22-1.8 4.02-4.02 4.02H11.62a4.02 4.02 0 0 1-4.02-4.02V18.3c0-2.22 1.8-4.02 4.02-4.02h4.63l.52-.89c.72-1.23 2.07-2.03 3.47-1.99h7.51c1.42 0 2.75.76 3.47 1.99l.52.89h4.63c2.22 0 4.02 1.8 4.02 4.02v14.28z"/><path d="M24 16.44c-4.69 0-8.51 3.82-8.51 8.52s3.82 8.52 8.51 8.52 8.51-3.82 8.51-8.52-3.82-8.52-8.51-8.52zm0 13.44c-2.7 0-4.9-2.21-4.9-4.92s2.2-4.92 4.9-4.92 4.9 2.21 4.9 4.92-2.2 4.92-4.9 4.92z"/></g></g></svg>