<svg version="1.1" xmlns="http://www.w3.org/2000/svg" x="0" y="0" viewBox="0 0 48 48" xml:space="preserve" enable-background="new 0 0 48 48" width="48" height="48"><title>card</title><g class="nc-icon-wrapper"><path class="st23" d="M40.34 10.15H7.65c-2 0-3.63 1.62-3.65 3.63v20.44c.02 2 1.65 3.62 3.64 3.62h32.71c2 0 3.63-1.62 3.65-3.63V13.77c-.02-2.01-1.68-3.64-3.66-3.62zM7.66 13.23h32.69c.2 0 .34.1.4.16s.17.2.17.39v12.95H7.08V13.8c0-.32.29-.56.58-.57zm32.69 21.54H7.65c-.31 0-.57-.25-.57-.55v-2.01h33.85v2c-.01.31-.27.56-.58.56z" id="Layer_1" style="" fill="#252830"/></g></svg>