<svg version="1.1" xmlns="http://www.w3.org/2000/svg" x="0" y="0" viewBox="0 0 48 48" xml:space="preserve" enable-background="new 0 0 48 48" width="48" height="48"><title>challenge</title><g class="nc-icon-wrapper" fill="#000000"><g id="Layer_1"><path d="M22.95 40.36h-8.4c-1.8 0-3.27-1.47-3.27-3.27V30.1c-.39.07-.79.1-1.18.07C6.77 30.18 4 27.41 4 24s2.77-6.18 6.18-6.18c.35-.02.72.01 1.09.07v-6.98c0-1.81 1.47-3.27 3.27-3.27h8.4c1.07 0 1.94.47 2.39 1.3.43.78.38 1.75-.12 2.61-.1.22-.15.47-.13.71 0 1.5 1.14 2.64 2.55 2.64 1.4 0 2.54-1.14 2.54-2.54.02-.33-.03-.59-.13-.82-.5-.86-.54-1.82-.11-2.61.45-.82 1.34-1.3 2.39-1.3h8.4c1.81 0 3.27 1.47 3.27 3.27v26.18c0 1.8-1.47 3.27-3.27 3.27h-8.4-.01c-1.04 0-1.93-.48-2.38-1.29-.43-.78-.39-1.76.11-2.62.1-.22.15-.47.14-.71 0-1.5-1.14-2.65-2.55-2.65s-2.54 1.14-2.54 2.55c-.02.34.03.59.13.82.5.86.55 1.83.12 2.61-.46.83-1.33 1.3-2.39 1.3zm-8.04-3.63h6.62c-.07-.4-.09-.8-.07-1.2 0-3.3 2.77-6.08 6.18-6.08s6.18 2.77 6.18 6.18c.02.35 0 .72-.07 1.09h6.62V11.27h-6.62c.07.39.1.79.08 1.18 0 3.32-2.77 6.09-6.18 6.09-3.4 0-6.18-2.77-6.18-6.18-.02-.35 0-.72.07-1.09h-6.62v8.04c0 1.07-.47 1.94-1.3 2.39-.78.43-1.75.38-2.61-.12-.23-.1-.47-.15-.72-.14-1.5 0-2.64 1.14-2.64 2.55 0 1.4 1.14 2.54 2.55 2.54.33.02.59-.03.81-.13.86-.5 1.83-.55 2.61-.12.82.45 1.3 1.35 1.3 2.4v8.05zm17.41-.01zm-21.05-8.03z" id="Stroke_1_Copy_12_2_"/></g></g></svg>