<svg version="1.1" xmlns="http://www.w3.org/2000/svg" x="0" y="0" viewBox="0 0 48 48" xml:space="preserve" enable-background="new 0 0 48 48" width="48" height="48"><title>close2</title><g class="nc-icon-wrapper"><path class="st20" d="M27.14 24L43.35 7.79c.87-.87.87-2.27 0-3.14-.87-.87-2.27-.87-3.14 0L24 20.86 7.79 4.65c-.87-.87-2.27-.87-3.14 0s-.87 2.27 0 3.14L20.86 24 4.65 40.21c-.87.87-.87 2.27 0 3.14a2.219 2.219 0 0 0 3.14 0L24 27.14l16.21 16.21a2.219 2.219 0 0 0 3.14 0c.87-.87.87-2.27 0-3.14L27.14 24z" id="Layer_1" style="" fill="#242730"/></g></svg>