<svg version="1.1" xmlns="http://www.w3.org/2000/svg" x="0" y="0" viewBox="0 0 48 48" xml:space="preserve" enable-background="new 0 0 48 48" width="48" height="48"><title>close</title><g class="nc-icon-wrapper" fill="#000000"><path d="M6.54 21.94L19.47 8.9a3.051 3.051 0 0 1 4.32-.02c1.2 1.19 1.21 3.12.02 4.32l-7.7 7.77h23.18a3.06 3.06 0 1 1 0 6.12H16.2l7.89 7.65a3.06 3.06 0 0 1 .07 4.32c-.6.62-1.4.93-2.2.93-.77 0-1.53-.29-2.13-.86L6.59 26.29c-.59-.57-.92-1.35-.93-2.17s.31-1.6.88-2.18z" id="Layer_1"/></g></svg>