<svg version="1.1" xmlns="http://www.w3.org/2000/svg" x="0" y="0" viewBox="0 0 48 48" xml:space="preserve" enable-background="new 0 0 48 48" width="48" height="48"><title>colour</title><g class="nc-icon-wrapper" fill="#000000"><path class="st55" d="M24 4C12.96 4 4 12.96 4 24s8.96 20 20 20a3.329 3.329 0 0 0 2.46-5.57c-.51-.58-.84-1.36-.84-2.2 0-1.84 1.49-3.33 3.33-3.33h3.93c6.13 0 11.11-4.98 11.11-11.11C44 11.96 35.04 4 24 4zM11.78 24c-1.84 0-3.33-1.49-3.33-3.33s1.49-3.33 3.33-3.33 3.33 1.49 3.33 3.33S13.62 24 11.78 24zm6.66-8.89c-1.84 0-3.33-1.49-3.33-3.33s1.49-3.33 3.33-3.33 3.33 1.49 3.33 3.33-1.48 3.33-3.33 3.33zm11.12 0c-1.84 0-3.33-1.49-3.33-3.33s1.49-3.33 3.33-3.33 3.33 1.49 3.33 3.33-1.49 3.33-3.33 3.33zM36.22 24c-1.84 0-3.33-1.49-3.33-3.33s1.49-3.33 3.33-3.33 3.33 1.49 3.33 3.33S38.07 24 36.22 24z" id="Layer_1" style="" fill="#000000"/></g></svg>