<svg version="1.1" xmlns="http://www.w3.org/2000/svg" x="0" y="0" viewBox="0 0 48 48" xml:space="preserve" enable-background="new 0 0 48 48" width="48" height="48"><title>delete</title><g class="nc-icon-wrapper" fill="#000000"><g id="Layer_1"><path d="M17.44 20.66h2.74V36.8h-2.74z"/><path d="M22.63 20.66h2.74V36.8h-2.74z"/><path d="M27.82 20.66h2.74V36.8h-2.74z"/><path d="M40.44 12.89h-6.6V9.44c0-3-2.44-5.44-5.44-5.44h-8.81c-3 0-5.44 2.44-5.44 5.44v3.45H7.56v3.42h3.1v22.26c0 3 2.44 5.44 5.44 5.44h15.81c3 0 5.44-2.44 5.44-5.44V16.31h3.1v-3.42zm-7.2 25.67c0 .73-.6 1.33-1.33 1.33H16.09c-.73 0-1.33-.6-1.33-1.33V16.63h18.47v21.93zM19.59 8.11h8.81c.73 0 1.33.6 1.33 1.33v3.45H18.27V9.44c0-.73.59-1.33 1.32-1.33z"/></g></g></svg>