<svg version="1.1" xmlns="http://www.w3.org/2000/svg" x="0" y="0" viewBox="0 0 48 48" xml:space="preserve" enable-background="new 0 0 48 48" width="48" height="48"><title>zzzzdouble chevron</title><g class="nc-icon-wrapper" fill="#000000"><g id="Layer_2"><path d="M39.5 23.4c-.5 0-1-.2-1.4-.6L24 8.7 9.9 22.8c-.8.8-2 .8-2.7 0s-.8-2 0-2.7L22.6 4.6c.8-.8 2-.8 2.7 0l15.5 15.5c.8.8.8 2 0 2.7-.3.4-.8.6-1.3.6z" id="Path_527_2_"/><path d="M39.5 44c-.5 0-1-.2-1.4-.6L24 29.3 9.9 43.4c-.8.8-2 .8-2.7 0-.8-.8-.8-2 0-2.7l15.5-15.5c.8-.8 2-.8 2.7 0l15.5 15.5c.8.8.8 2 0 2.7-.4.4-.9.6-1.4.6z" id="Path_527_1_"/></g></g></svg>