<svg version="1.1" xmlns="http://www.w3.org/2000/svg" x="0" y="0" viewBox="0 0 48 48" xml:space="preserve" enable-background="new 0 0 48 48" width="48" height="48"><title>edit 2</title><g class="nc-icon-wrapper" fill="#000000"><path d="M41.62 6.38c-2.71-2.71-7.13-2.71-9.84 0L4.34 33.82v9.84h9.84l27.44-27.44c2.71-2.72 2.71-7.13 0-9.84zm-12.27 6.68l2.8-2.8 5.59 5.59-2.8 2.8-5.59-5.59zm4.53 6.65L15.66 37.94l-5.59-5.59L28.3 14.12l5.58 5.59zM12.94 40.66h-5.6v-5.59L9 33.4l5.6 5.6-1.66 1.66zM39.5 14.09l-.7.7-5.59-5.59.7-.7a3.96 3.96 0 0 1 5.59 0 3.96 3.96 0 0 1 0 5.59z" id="Layer_1"/></g></svg>