<svg version="1.1" xmlns="http://www.w3.org/2000/svg" x="0" y="0" viewBox="0 0 48 48" xml:space="preserve" enable-background="new 0 0 48 48" width="48" height="48"><title>format</title><g class="nc-icon-wrapper" fill="#000000"><g id="Layer_1"><path d="M21.6 17.93H6.22C5 17.93 4 18.93 4 20.16s1 2.22 2.22 2.22h5.47v15.08c0 1.23 1 2.22 2.22 2.22s2.22-1 2.22-2.22V22.38h5.46c1.23 0 2.22-1 2.22-2.22.01-1.23-.99-2.23-2.21-2.23z"/><path d="M41.78 8.32H18.71c-1.23 0-2.22 1-2.22 2.22s1 2.22 2.22 2.22h9.31v24.68c0 1.23 1 2.22 2.22 2.22 1.23 0 2.22-1 2.22-2.22V12.77h9.31c1.23 0 2.22-1 2.22-2.22S43 8.32 41.78 8.32z"/></g></g></svg>