<svg xmlns="http://www.w3.org/2000/svg" viewBox="0 0 48 48" width="48" height="48"><title>fullscreen</title><g class="nc-icon-wrapper" fill="#000000"><g id="Layer_2" data-name="Layer 2"><path d="M41.78 20.75a2.21 2.21 0 0 1-2.22-2.22V8.44H29A2.22 2.22 0 0 1 29 4h12.78A2.23 2.23 0 0 1 44 6.22v12.31a2.22 2.22 0 0 1-2.22 2.22z"/><path d="M6.22 20.75A2.22 2.22 0 0 1 4 18.53V6.22A2.23 2.23 0 0 1 6.22 4H19a2.22 2.22 0 1 1 0 4.44H8.44v10.09a2.21 2.21 0 0 1-2.22 2.22z"/><path d="M41.78 44H29a2.22 2.22 0 0 1 0-4.44h10.56v-11a2.22 2.22 0 0 1 4.44 0v13.22A2.23 2.23 0 0 1 41.78 44z"/><path d="M19 44H6.22A2.23 2.23 0 0 1 4 41.78V28.56a2.22 2.22 0 0 1 4.44 0v11H19A2.22 2.22 0 1 1 19 44z"/></g></g></svg>