<svg version="1.1" xmlns="http://www.w3.org/2000/svg" x="0" y="0" viewBox="0 0 48 48" xml:space="preserve" enable-background="new 0 0 48 48" width="48" height="48"><title>game</title><g class="nc-icon-wrapper"><g id="Layer_1"><path class="st23" d="M17.74 18.42h-3.87v3.23h-3.35v3.72h3.35v3.22h3.87v-3.22h3.35v-3.72h-3.35z" style="" fill="#252830"/><circle class="st23" cx="28.16" cy="23.85" r="1.78" style="" fill="#252830"/><circle class="st23" cx="32.32" cy="19.84" r="1.78" style="" fill="#252830"/><circle class="st23" cx="32.32" cy="27.86" r="1.78" style="" fill="#252830"/><circle class="st23" cx="36.49" cy="23.85" r="1.78" style="" fill="#252830"/><path class="st23" d="M32.31 12.31H15.69C9.24 12.31 4 17.56 4 24s5.24 11.69 11.69 11.69h16.62C38.76 35.69 44 30.44 44 24s-5.24-11.69-11.69-11.69zm0 21.38H15.69C10.35 33.69 6 29.34 6 24s4.35-9.69 9.69-9.69h16.62c5.34 0 9.69 4.35 9.69 9.69s-4.35 9.69-9.69 9.69z" style="" fill="#252830"/></g></g></svg>