<svg version="1.1" xmlns="http://www.w3.org/2000/svg" x="0" y="0" viewBox="0 0 48 48" xml:space="preserve" enable-background="new 0 0 48 48" width="48" height="48"><title>game2</title><g class="nc-icon-wrapper" fill="#000000"><path class="st43" d="M33.41 12.82V9.29h3.53v3.53h-3.53zM15.02 23.34h3.65v-3.56h-3.65v3.56zm14.31 0h3.65v-3.56h-3.65v3.56zm0-10.52h3.65v3.53h3.68v3.53h3.63v3.55H44V34h-3.65v-7.01l-.05-.01v.01h-3.63v3.44h-.02v3.54H33v-3.54H15.02v3.54h-3.66v-3.56h.01v-3.42H7.7l-.04-.07-.01.01V34H4V23.43h3.7v-3.55h3.67v-3.53h3.64v-3.53h3.65v3.53h10.66v-3.53zm-18.27 0V9.29h3.53v3.53h-3.53zm14.12 22.36h7.06v3.53h-7.06v-3.53zm-10.59 0h7.05v3.53h-7.05v-3.53z" id="Layer_1" fill-rule="evenodd" clip-rule="evenodd"/></g></svg>