<svg version="1.1" xmlns="http://www.w3.org/2000/svg" x="0" y="0" viewBox="0 0 48 48" xml:space="preserve" enable-background="new 0 0 48 48" width="48" height="48"><title>gift</title><g class="nc-icon-wrapper" fill="#000000"><path class="st55" d="M42 11.05h-7.03c.22-.55.35-1.15.35-1.77 0-2.63-2.14-4.77-4.77-4.77-3.27 0-5.33 2.23-6.55 4.29-1.21-2.06-3.28-4.29-6.55-4.29-2.63 0-4.77 2.14-4.77 4.77 0 .63.13 1.22.35 1.77H6c-.83 0-1.5.67-1.5 1.5v6.54c0 .83.67 1.5 1.5 1.5h1.77V42c0 .83.67 1.5 1.5 1.5h29.46c.83 0 1.5-.67 1.5-1.5V20.59H42c.83 0 1.5-.67 1.5-1.5v-6.54c0-.83-.67-1.5-1.5-1.5zM30.55 7.5c.98 0 1.77.79 1.77 1.77s-.79 1.77-1.77 1.77h-4.36c.76-1.56 2.16-3.54 4.36-3.54zM24 14.05h1.77v3.54h-3.54v-3.54H24zm-8.32-4.78c0-.98.79-1.77 1.77-1.77 2.19 0 3.59 1.98 4.36 3.55h-4.36c-.97 0-1.77-.8-1.77-1.78zM7.5 14.05H19.22v3.54H7.5v-3.54zm3.27 6.54h8.46V40.5h-8.46V20.59zM22.23 40.5V20.59h3.54V40.5h-3.54zm15 0h-8.46V20.59h8.46V40.5zm3.27-22.91H28.77v-3.54H40.49v3.54z" id="Layer_1" style="" fill="#000000"/></g></svg>