<svg version="1.1" xmlns="http://www.w3.org/2000/svg" x="0" y="0" viewBox="0 0 48 48" xml:space="preserve" enable-background="new 0 0 48 48" width="48" height="48"><title>zzzzzgroup</title><g class="nc-icon-wrapper" fill="#000000"><g id="Layer_1"><g id="layers-3_2_" transform="translate(.5 -.5)"><g id="Group_2536_2_" transform="translate(.5 1.5)"><path d="M23 31c-.3 0-.7-.1-1-.3L4 19.9c-.6-.4-.9-1-.9-1.7s.4-1.3.9-1.7L22 5.7c.6-.4 1.4-.4 2 0l18 10.8c.6.4.9 1 .9 1.7s-.4 1.3-.9 1.7L24 30.7c-.3.2-.7.3-1 .3zM8.8 18.2L23 26.7l14.2-8.5L23 9.6 8.8 18.2z" id="Path_596_2_"/><path d="M23 40.6c-.3 0-.7-.1-1-.3L4 29.5c-.6-.4-.9-1-.9-1.7s.4-1.3.9-1.7L7.6 24c.9-.6 2.1-.3 2.7.7.6.9.3 2.1-.7 2.7l-.8.5L23 36.4l14.2-8.5-.8-.5c-.9-.6-1.2-1.8-.7-2.7.6-.9 1.8-1.2 2.7-.7l3.6 2.2c.6.4.9 1 .9 1.7s-.4 1.3-.9 1.7L24 40.3c-.3.2-.7.3-1 .3z" id="Path_597_2_"/></g></g></g></g></svg>