<svg version="1.1" xmlns="http://www.w3.org/2000/svg" x="0" y="0" viewBox="0 0 48 48" xml:space="preserve" enable-background="new 0 0 48 48" width="48" height="48"><title>image</title><g class="nc-icon-wrapper" fill="#000000"><g id="Layer_1"><path d="M10 24.84v7.63c0 .84.68 1.53 1.53 1.53h22.89L17.63 17.21 10 24.84z"/><path d="M30.87 16.37a3.05 3.05 0 1 0-.001 6.099 3.05 3.05 0 0 0 .001-6.099z"/><path d="M38.56 8H9.44c-2.9 0-5.25 2.36-5.25 5.25v21.49c0 2.9 2.36 5.25 5.25 5.25h29.12c2.9 0 5.25-2.36 5.25-5.25V13.25C43.82 10.36 41.46 8 38.56 8zm2.26 26.75c0 1.24-1.01 2.25-2.25 2.25H9.44c-1.24 0-2.25-1.01-2.25-2.25v-21.5C7.18 12.01 8.2 11 9.44 11h29.12c1.24 0 2.25 1.01 2.25 2.25v21.5z"/></g></g></svg>