<svg version="1.1" xmlns="http://www.w3.org/2000/svg" x="0" y="0" viewBox="0 0 48 48" xml:space="preserve" enable-background="new 0 0 48 48" width="48" height="48"><title>zzzinteractive</title><g class="nc-icon-wrapper" fill="#000000"><path d="M22.5 43.5c-.4 0-.8-.1-1.1-.2-1.2-.5-2-1.8-1.9-3.1L20.6 30H10.5c-1.2 0-2.2-.6-2.7-1.7-.5-1-.4-2.3.3-3.2l15-19.5c.8-1.1 2.3-1.5 3.5-1 1.2.5 2 1.8 1.9 3.1L27.4 18h10.1c1.2 0 2.2.6 2.7 1.7.5 1 .4 2.3-.3 3.2l-15 19.5c-.6.7-1.5 1.1-2.4 1.1zm3-36L10.5 27h11.8c.4 0 .8.2 1.1.5.3.3.4.7.4 1.2l-1.3 11.8 15-19.5H25.7c-.4 0-.8-.2-1.1-.5-.3-.3-.4-.7-.4-1.2l1.3-11.8zm12 13.5zm1.3-.7l-1.3.7 1.3-.7z" id="Layer_2"/></g></svg>