<svg version="1.1" xmlns="http://www.w3.org/2000/svg" x="0" y="0" viewBox="0 0 48 48" xml:space="preserve" enable-background="new 0 0 48 48" width="48" height="48"><title>zzzinteractive filled</title><g class="nc-icon-wrapper" fill="#000000"><path d="M39.7 20.1c-.3-.5-.8-.9-1.4-.9H25.8l1.4-12.5c.1-.7-.3-1.4-1-1.6-.2-.1-.4-.1-.6-.1-.5 0-.9.2-1.3.6L8.5 26.2c-.4.5-.4 1.1-.2 1.7.3.5.8.9 1.4.9h12.5l-1.4 12.5c-.1.7.3 1.4 1 1.6.2.1.4.1.6.1.5 0 .9-.2 1.3-.6l15.8-20.6c.4-.5.4-1.1.2-1.7z" id="Layer_2"/></g></svg>