<svg version="1.1" xmlns="http://www.w3.org/2000/svg" x="0" y="0" viewBox="0 0 48 48" xml:space="preserve" enable-background="new 0 0 48 48" width="48" height="48"><title>left align</title><g class="nc-icon-wrapper"><g id="Layer_1"><path class="st23" d="M41.5 31.61h-35a2.5 2.5 0 0 1 0-5h35a2.5 2.5 0 0 1 0 5z" id="Stroke_4_3_" style="" fill="#252830"/><path class="st23" d="M41.5 11.19h-35a2.5 2.5 0 0 1 0-5h35a2.5 2.5 0 0 1 0 5z" id="Stroke_4_Copy_3_" style="" fill="#252830"/><path class="st23" d="M31.49 41.82H6.5a2.5 2.5 0 0 1 0-5h24.98a2.5 2.5 0 0 1 .01 5z" id="Stroke_4_Copy_2_4_" style="" fill="#252830"/><path class="st23" d="M31.49 21.4H6.5a2.5 2.5 0 0 1 0-5h24.98a2.5 2.5 0 0 1 2.5 2.5c.01 1.38-1.11 2.5-2.49 2.5z" id="Stroke_4_Copy_2_5_" style="" fill="#252830"/></g></g></svg>