<svg version="1.1" xmlns="http://www.w3.org/2000/svg" x="0" y="0" viewBox="0 0 48 48" xml:space="preserve" enable-background="new 0 0 48 48" width="48" height="48"><title>library</title><g class="nc-icon-wrapper" fill="#000000"><path d="M44 19.99a2.43 2.43 0 0 0-2.34-2.51h-.74c-.52-1.38-1.86-2.35-3.4-2.29H36.4c-.44-2.59-2.69-4.58-5.41-4.58H9.51C6.47 10.62 4 13.09 4 16.13v15.75c0 3.04 2.47 5.51 5.51 5.51h21.48c2.72 0 4.97-1.99 5.41-4.59h1.23c1.48 0 2.76-.94 3.28-2.29h.78c1.32-.06 2.36-1.18 2.3-2.47l.01-8.05zM33.36 31.87c0 1.31-1.06 2.37-2.37 2.37H9.51c-1.31 0-2.37-1.06-2.37-2.37V16.13c0-1.31 1.06-2.37 2.37-2.37h21.48c1.31 0 2.37 1.06 2.37 2.37v15.74zm4.16-1.17h-1.03V17.29h1.08c.79-.02 1.46.58 1.5 1.32v10.73c-.04.79-.73 1.38-1.55 1.36zm4.14-1.76h-.5v-9.89h.47c.46.02.82.41.8.91v8.1c.02.47-.34.86-.77.88z" id="Layer_1"/></g></svg>