<svg version="1.1" xmlns="http://www.w3.org/2000/svg" x="0" y="0" viewBox="0 0 48 48" xml:space="preserve" enable-background="new 0 0 48 48" width="48" height="48"><title>like</title><g class="nc-icon-wrapper" fill="#000000"><path d="M24 42.08c-.5 0-1-.19-1.39-.56-.53-.51-13.09-12.55-16.6-17.78-.02-.04-.05-.08-.07-.12C4.65 21.39 4 19.8 4 17.29 4 11.02 9.1 5.92 15.36 5.92c3.39 0 6.52 1.49 8.64 3.97 2.12-2.48 5.25-3.97 8.64-3.97C38.9 5.92 44 11.02 44 17.29c0 2.32-.7 4.56-2.03 6.47-.01.02-.03.04-.05.06-5.02 6.66-16.07 17.25-16.54 17.69-.38.38-.88.57-1.38.57zM9.38 21.55C12.05 25.48 20.61 33.97 24 37.27c3.15-3.08 10.88-10.78 14.7-15.83a7.324 7.324 0 0 0 1.29-4.15c0-4.05-3.3-7.35-7.35-7.35a7.32 7.32 0 0 0-6.78 4.52c-.31.75-1.04 1.23-1.85 1.23s-1.54-.49-1.85-1.23a7.33 7.33 0 0 0-6.78-4.52c-4.05 0-7.35 3.3-7.35 7.35-.01 1.51.26 2.35 1.35 4.26zm30.94 1.07h.01-.01z" id="Layer_1"/></g></svg>