<svg version="1.1" xmlns="http://www.w3.org/2000/svg" x="0" y="0" viewBox="0 0 48 48" xml:space="preserve" enable-background="new 0 0 48 48" width="48" height="48"><title>like full</title><g class="nc-icon-wrapper" fill="#000000"><path d="M32.94 5.99c-3.59 0-6.88 1.72-8.94 4.53a11.013 11.013 0 0 0-8.94-4.53C8.96 5.99 4 10.95 4 17.06c0 2.46.62 3.96 1.96 6.28 3.59 5.35 16.53 17.76 17.08 18.28.27.26.61.38.96.38.34 0 .69-.13.96-.38.48-.46 11.87-11.37 17.04-18.22.01-.01.02-.03.03-.04 1.29-1.86 1.98-4.04 1.98-6.3C44 10.95 39.04 5.99 32.94 5.99z" id="Layer_1"/></g></svg>