<svg version="1.1" xmlns="http://www.w3.org/2000/svg" x="0" y="0" viewBox="0 0 48 48" xml:space="preserve" enable-background="new 0 0 48 48" width="48" height="48"><title>location</title><g class="nc-icon-wrapper" fill="#000000"><g id="Layer_1"><path d="M23.68 12.03c-3.41 0-6.18 2.77-6.18 6.19s2.77 6.18 6.18 6.18a6.184 6.184 0 0 0 0-12.37zm0 9.21c-1.67 0-3.03-1.36-3.03-3.02 0-1.67 1.36-3.03 3.03-3.03 1.67 0 3.03 1.36 3.03 3.03a3.039 3.039 0 0 1-3.03 3.02z"/><path d="M23.68 4C15.84 4 9.46 10.38 9.46 18.22c0 2.77.79 5.44 2.3 7.75.02.05.05.1.08.15l10.5 17.13c.29.47.8.75 1.35.75s1.06-.29 1.35-.75l10.5-17.13c.03-.05.06-.1.08-.15 1.5-2.31 2.3-4.98 2.3-7.75C37.89 10.38 31.52 4 23.68 4zm9.17 20.39c-.06.08-.1.17-.14.26L23.68 39.4l-9.03-14.75c-.04-.09-.08-.17-.14-.26a11.014 11.014 0 0 1-1.88-6.17c0-6.1 4.96-11.06 11.06-11.06s11.06 4.96 11.06 11.06c-.02 2.21-.67 4.35-1.9 6.17z"/></g></g></svg>