<svg version="1.1" xmlns="http://www.w3.org/2000/svg" x="0" y="0" viewBox="0 0 48 48" xml:space="preserve" enable-background="new 0 0 48 48" width="48" height="48"><title>lock</title><g class="nc-icon-wrapper" fill="#000000"><g id="Layer_1"><path d="M34.47 20.95v-6.48C34.47 8.7 29.77 4 24 4S13.53 8.7 13.53 14.47v6.48a13.833 13.833 0 0 0-3.44 9.13C10.09 37.76 16.33 44 24 44s13.91-6.24 13.91-13.91c0-3.5-1.3-6.69-3.44-9.14zM24 7.09c4.07 0 7.38 3.31 7.38 7.38v3.84a13.793 13.793 0 0 0-14.76 0v-3.84c0-4.07 3.31-7.38 7.38-7.38zm0 33.82c-5.97 0-10.82-4.85-10.82-10.82S18.03 19.27 24 19.27s10.82 4.85 10.82 10.82S29.97 40.91 24 40.91z"/><path d="M27.13 28.03c0-1.73-1.4-3.13-3.13-3.13s-3.13 1.4-3.13 3.13c0 1.26.75 2.34 1.82 2.84l-1.03 4.8h4.68l-1.03-4.8c1.08-.5 1.82-1.58 1.82-2.84z"/></g></g></svg>