<svg version="1.1" xmlns="http://www.w3.org/2000/svg" x="0" y="0" viewBox="0 0 48 48" xml:space="preserve" enable-background="new 0 0 48 48" width="48" height="48"><title>menu</title><g class="nc-icon-wrapper"><g id="Layer_1"><path class="st23" d="M41.78 21.78H6.22C5 21.78 4 22.77 4 24s1 2.22 2.22 2.22h35.56c1.23 0 2.22-1 2.22-2.22s-1-2.22-2.22-2.22z" style="" fill="#252830"/><path class="st23" d="M6.22 14.1h35.56c1.23 0 2.22-1 2.22-2.22s-1-2.22-2.22-2.22H6.22C5 9.66 4 10.65 4 11.88s1 2.22 2.22 2.22z" style="" fill="#252830"/><path class="st23" d="M26.15 33.9H6.22C5 33.9 4 34.89 4 36.12s1 2.22 2.22 2.22h19.93c1.23 0 2.22-1 2.22-2.22s-.99-2.22-2.22-2.22z" style="" fill="#252830"/></g></g></svg>