<svg version="1.1" xmlns="http://www.w3.org/2000/svg" x="0" y="0" viewBox="0 0 48 48" xml:space="preserve" enable-background="new 0 0 48 48" width="48" height="48"><title>zzzzzmoney</title><g class="nc-icon-wrapper" fill="#000000"><path d="M35.9 26.1c-.8-1.2-1.9-2.1-3.5-2.9-1.6-.8-3.8-1.4-6.5-2.1-2-.5-3.5-1-4.5-1.4-1-.4-1.8-.9-2.3-1.4-.5-.5-.7-1.2-.7-2.1 0-1.2.5-2.1 1.4-2.8 1-.6 2.3-1 4-1 1.5 0 2.8.3 3.8 1s1.6 1.5 1.8 2.4c.2.5.7.8 1.4.8h4.3c.3 0 .5-.1.7-.3.2-.2.3-.4.3-.7-.1-1.3-.6-2.6-1.5-4-1-1.3-2.4-2.4-4.2-3.3-1-.5-2.2-.8-3.5-1.1V5.4c0-.8-.6-1.4-1.4-1.4h-2.9c-.8 0-1.4.6-1.4 1.4v2c-1.4.2-2.6.5-3.7 1-1.8.8-3.2 1.9-4.2 3.3s-1.5 3-1.5 4.7c0 2.6.8 4.6 2.5 6 1.7 1.4 4.3 2.5 7.9 3.4 2.2.6 3.8 1.1 5 1.5 1.1.4 1.9.9 2.5 1.4.5.5.8 1.2.8 2.1 0 1.3-.5 2.2-1.6 2.9-1.1.7-2.7 1.1-4.8 1.1-1.9 0-3.4-.4-4.5-1.1-1.1-.7-1.8-1.6-2.1-2.6-.2-.3-.4-.5-.6-.6-.2-.2-.5-.2-.8-.2h-4.2c-.3 0-.5.1-.7.3-.2.2-.3.4-.3.7.1 1.6.6 3 1.6 4.4 1 1.3 2.5 2.4 4.4 3.2 1.2.5 2.6.9 4.2 1v2.6c0 .8.6 1.4 1.4 1.4h2.9c.8 0 1.4-.6 1.4-1.4v-2.6c1.4-.2 2.8-.5 4-1 2-.8 3.5-1.9 4.6-3.3 1.1-1.4 1.6-3.2 1.6-5.1.1-1.8-.3-3.2-1.1-4.4z" id="Layer_1"/></g></svg>