<svg version="1.1" xmlns="http://www.w3.org/2000/svg" x="0" y="0" viewBox="0 0 48 48" xml:space="preserve" enable-background="new 0 0 48 48" width="48" height="48"><title>zzmusic off</title><g class="nc-icon-wrapper" fill="#000000"><g id="Layer_2"><path d="M17.9 14.4L38.5 8v2.9l-18 5.6 2.9 2.2L38.5 14v13.5c-1-.6-2.2-1-3.5-1-.5 0-1 .1-1.4.2l7.9 6.2v-.5V6c0-.5-.2-.9-.6-1.2-.4-.3-.9-.4-1.3-.2l-24 7.4c-.2.1-.3.1-.5.3l2.8 2.1z"/><path d="M17.5 21l-3-2.3v12.8c-1-.6-2.2-1-3.5-1-3.6 0-6.5 2.9-6.5 6.5s2.9 6.5 6.5 6.5 6.5-2.9 6.5-6.5v-.7V21zM11 40.5c-1.9 0-3.5-1.6-3.5-3.5s1.6-3.5 3.5-3.5 3.5 1.6 3.5 3.5-1.6 3.5-3.5 3.5z"/><path d="M36.8 36c-.5.3-1.1.5-1.8.5-1.9 0-3.5-1.6-3.5-3.5 0-.3.1-.7.2-1l-2.5-1.9c-.4.9-.7 1.9-.7 2.9 0 3.6 2.9 6.5 6.5 6.5 1.6 0 3.1-.6 4.2-1.6L36.8 36z"/><g><path d="M43.7 39.5c-.3 0-.6-.1-.9-.3l-36-28c-.7-.5-.8-1.5-.3-2.1.6-.7 1.5-.8 2.2-.3l36 28c.7.5.8 1.5.3 2.1-.4.4-.8.6-1.3.6z"/></g></g></g></svg>