<svg version="1.1" xmlns="http://www.w3.org/2000/svg" x="0" y="0" viewBox="0 0 48 48" xml:space="preserve" enable-background="new 0 0 48 48" width="48" height="48"><title>zzmusic</title><g class="nc-icon-wrapper" fill="#000000"><path d="M41.5 6c0-.5-.2-.9-.6-1.2-.4-.3-.9-.4-1.3-.2l-24 7.4c-.6.2-1.1.8-1.1 1.4v18.1c-1-.6-2.2-1-3.5-1-3.6 0-6.5 2.9-6.5 6.5s2.9 6.5 6.5 6.5 6.5-2.9 6.5-6.5v-.7-15.8l21-6.5v13.5c-1-.6-2.2-1-3.5-1-3.6 0-6.5 2.9-6.5 6.5s2.9 6.5 6.5 6.5 6.5-2.9 6.5-6.5v-.7V6zM11 40.5c-1.9 0-3.5-1.6-3.5-3.5s1.6-3.5 3.5-3.5 3.5 1.6 3.5 3.5-1.6 3.5-3.5 3.5zm6.5-23.1v-2.9l21-6.5v2.9l-21 6.5zM35 36.5c-1.9 0-3.5-1.6-3.5-3.5s1.6-3.5 3.5-3.5 3.5 1.6 3.5 3.5-1.6 3.5-3.5 3.5z" id="Layer_2"/></g></svg>