<svg version="1.1" xmlns="http://www.w3.org/2000/svg" x="0" y="0" viewBox="0 0 48 48" xml:space="preserve" enable-background="new 0 0 48 48" width="48" height="48"><title>mute2</title><g class="nc-icon-wrapper" fill="#000000"><g id="Layer_1"><path d="M20.8 18.7l3.1 2.3v-2.6l8.1-5.1V27l3 2.2V10.6c0-.5-.3-1-.8-1.3-.5-.3-1.1-.2-1.5 0l-10.1 6.4H18.2c-.4 0-.8 0-1.2.1l3.8 2.9z"/><path d="M31.9 33.8v1.3L23.8 30v-2.3l-3-2.2v4.1H18c-1.5 0-2.9-.6-4-1.6s-1.7-2.4-1.7-3.9c0-1.4.6-2.7 1.5-3.7l-2.4-1.8c-1.3 1.5-2.1 3.5-2.1 5.6 0 4.7 3.9 8.5 8.6 8.5H22.4l10.2 6.4c.2.2.5.2.8.2.2 0 .5-.1.7-.2.5-.3.8-.8.8-1.3V36l-3-2.2z"/><g><path d="M42.9 40c-.3 0-.6-.1-.9-.3l-37.7-28c-.7-.5-.8-1.4-.3-2.1.4-.7 1.4-.8 2-.3l37.7 28c.7.5.8 1.4.3 2.1-.2.4-.7.6-1.1.6z"/></g></g></g></svg>