<svg version="1.1" xmlns="http://www.w3.org/2000/svg" x="0" y="0" viewBox="0 0 48 48" xml:space="preserve" enable-background="new 0 0 48 48" width="48" height="48"><title>mute</title><g class="nc-icon-wrapper" fill="#000000"><g id="Layer_1"><path d="M26.84 10.19c-.5-.27-1.1-.26-1.58.05l-9.2 5.79c-.03 0-.05-.01-.08-.01H12c-2.11 0-4.1.81-5.61 2.29a7.96 7.96 0 0 0-2.4 5.67c.04 4.4 3.63 7.94 8.02 7.94h3.98l9.27 5.84c.25.16.54.24.83.24a1.544 1.544 0 0 0 1.55-1.55v-24.9c.01-.57-.3-1.09-.8-1.36zM12.08 28.82h-.06c-2.68 0-4.88-2.17-4.9-4.83a4.917 4.917 0 0 1 4.92-4.86h2.4v9.69h-2.36zm12.45 4.81l-6.99-4.4V18.77l6.99-4.4v19.26z"/><path d="M40.59 23.82l2.96-2.96c.61-.61.61-1.59 0-2.2-.61-.61-1.59-.61-2.2 0l-2.96 2.96-2.96-2.96c-.61-.61-1.59-.61-2.2 0s-.61 1.59 0 2.2l2.96 2.96-2.91 2.91c-.61.61-.61 1.59 0 2.2.3.3.7.46 1.1.46.4 0 .8-.15 1.1-.46l2.91-2.91 2.91 2.91c.3.3.7.46 1.1.46.4 0 .8-.15 1.1-.46.61-.61.61-1.59 0-2.2l-2.91-2.91z"/></g></g></svg>