<?xml version="1.0" encoding="utf-8"?>
<!-- Generator: Adobe Illustrator 23.1.1, SVG Export Plug-In . SVG Version: 6.00 Build 0)  -->
<svg version="1.1" id="Layer_2" xmlns="http://www.w3.org/2000/svg" xmlns:xlink="http://www.w3.org/1999/xlink" x="0px" y="0px"
	 viewBox="0 0 48 48" style="enable-background:new 0 0 48 48;" xml:space="preserve">
<g>
	<path d="M41.9,41.4l-5.7-5.7c0,0,0,0,0,0L36,35.5l-0.9-0.9c0,0,0,0,0,0L24,23.5v0L15.6,15l-1.6-1.6l0,0L8.3,7.7
		c-0.6-0.6-1.5-0.6-2.1,0c-0.6,0.6-0.6,1.5,0,2.1l5.8,5.8c-2.3,2.8-3.6,6.3-3.6,10c0,8.7,7.1,15.7,15.7,15.7c3.7,0,7.2-1.3,10-3.6
		l5.7,5.7c0.3,0.3,0.7,0.4,1.1,0.4c0.4,0,0.8-0.1,1.1-0.4C42.5,42.9,42.5,42,41.9,41.4z M11.3,25.6c0-2.9,1-5.6,2.8-7.9l10,10v10.6
		C17,38.3,11.3,32.6,11.3,25.6z"/>
	<path d="M24,7.6L24,7.6l0,11.5l12.4,12.4l1.5,1.5c1.6-1.6,1.9-4.9,1.9-7.4c0-3.9-1.5-7.7-4.1-10.6c-0.1-0.1-0.1-0.1-0.2-0.2
		L25.1,4.4c-0.6-0.6-1.5-0.6-2.1,0l-6.9,6.8l2.1,2.1L24,7.6z"/>
</g>
</svg>
