<svg version="1.1" xmlns="http://www.w3.org/2000/svg" x="0" y="0" viewBox="0 0 48 48" xml:space="preserve" enable-background="new 0 0 48 48" width="48" height="48"><title>note1</title><g class="nc-icon-wrapper" fill="#000000"><path d="M39 5.5H9C7.07 5.5 5.5 7.07 5.5 9v30c0 1.93 1.57 3.5 3.5 3.5h19.65c.07 0 .13-.01.19-.02.04 0 .08.02.13.02.49 0 1.04-.21 1.48-.8l11.02-11.28c.6-.2 1.04-.75 1.04-1.42V9A3.519 3.519 0 0 0 39 5.5zM8.5 39V9c0-.28.22-.5.5-.5h30c.28 0 .5.22.5.5v18.74h-8.66c-2.04 0-3.69 1.66-3.69 3.69v8.07H9c-.28 0-.5-.22-.5-.5zm21.65-1.29v-6.29c0-.38.31-.69.69-.69h6.12l-6.81 6.98z" id="Layer_1"/></g></svg>