<svg version="1.1" xmlns="http://www.w3.org/2000/svg" x="0" y="0" viewBox="0 0 48 48" xml:space="preserve" enable-background="new 0 0 48 48" width="48" height="48"><title>note</title><g class="nc-icon-wrapper" fill="#000000"><g id="Layer_1"><path d="M41.5 5.1h-35A2.5 2.5 0 0 0 4 7.6v26a2.5 2.5 0 0 0 2.5 2.5h13.01l8.79 6.48c.3.22.65.33 1 .33.26 0 .53-.06.77-.19.58-.3.93-.88.93-1.52l-.02-5.1H41.5a2.5 2.5 0 0 0 2.5-2.5v-26a2.5 2.5 0 0 0-2.5-2.5zm-.5 28H29.47c-.83 0-1.5.67-1.5 1.5l.01 4.02-7.1-5.23c-.25-.19-.56-.29-.88-.29H7v-25h34v25z"/><path d="M11.5 15h25c.83 0 1.5-.67 1.5-1.5s-.67-1.5-1.5-1.5h-25c-.83 0-1.5.67-1.5 1.5s.67 1.5 1.5 1.5z"/><path d="M11.5 22h25c.83 0 1.5-.67 1.5-1.5s-.67-1.5-1.5-1.5h-25c-.83 0-1.5.67-1.5 1.5s.67 1.5 1.5 1.5z"/><path d="M11.5 29h12c.83 0 1.5-.67 1.5-1.5s-.67-1.5-1.5-1.5h-12c-.83 0-1.5.67-1.5 1.5s.67 1.5 1.5 1.5z"/></g></g></svg>