<svg version="1.1" xmlns="http://www.w3.org/2000/svg" x="0" y="0" viewBox="0 0 48 48" xml:space="preserve" enable-background="new 0 0 48 48" width="48" height="48"><title>note2</title><g class="nc-icon-wrapper" fill="#000000"><g id="Layer_1"><path class="st60" d="M21.94 38.93l-5.77.55c-1.1.11-2.08-.7-2.18-1.8l-.07-.73" fill="none" stroke="#000000" stroke-width="3" stroke-linecap="round"/><path class="st60" d="M25.41 10.77l11.71-1.12c1.1-.11 2.08.7 2.18 1.8l2.26 23.6c.11 1.1-.7 2.08-1.8 2.18l-6.53.63" fill="none" stroke="#000000" stroke-width="3" stroke-linecap="round"/><path class="st58" d="M30.35 40.93L7.44 34.85a2.002 2.002 0 0 1-1.42-2.45L12.1 9.49c.28-1.07 1.38-1.7 2.45-1.42l22.91 6.08c1.07.28 1.7 1.38 1.42 2.45L32.8 39.51a1.999 1.999 0 0 1-2.45 1.42z" fill="none" stroke="#000000" stroke-width="3"/><path class="st60" d="M23.6 6.55c.62-.65 1.47-1.05 2.4-1.05 1.93 0 3.5 1.72 3.5 3.85v8.8c0 2.13-1.57 3.85-3.5 3.85s-3.5-1.72-3.5-3.85V14.3" fill="none" stroke="#000000" stroke-width="3" stroke-linecap="round"/></g></g></svg>