<svg version="1.1" xmlns="http://www.w3.org/2000/svg" x="0" y="0" viewBox="0 0 48 48" xml:space="preserve" enable-background="new 0 0 48 48" width="48" height="48"><title>zzzpremium filled</title><g class="nc-icon-wrapper" fill="#000000"><g id="Layer_2"><path d="M22.4 32.9c-4.2-.4-8.2-2.7-10.7-6.2-.1-.1-.3-.2-.4-.2-.2 0-.3.1-.4.3l-6.1 12c-.1.2-.1.4.1.5.1.2.3.2.5.2l8.3-2.1 3.7 5.8c.1.1.3.2.4.2.2 0 .3-.1.4-.3l4.7-9.6c.1-.1.1-.3 0-.5-.2 0-.4-.1-.5-.1z"/><path d="M43.2 38.8l-6.1-12c-.1-.2-.2-.3-.4-.3s-.3.1-.4.2c-2.6 3.5-6.5 5.7-10.7 6.2-.2 0-.3.1-.4.3-.1.1-.1.3 0 .5l4.7 9.6c.1.2.2.3.4.3s.3-.1.4-.2l3.7-5.8 8.3 2.1c.2 0 .4 0 .5-.2.1-.3.1-.5 0-.7z"/><path d="M37.2 17.7c0-7.3-5.9-13.2-13.2-13.2s-13.2 5.9-13.2 13.2c0 7.3 5.9 13.2 13.2 13.2s13.2-6 13.2-13.2zM24 20.3c-1.5 0-2.7-1.2-2.7-2.7 0-1.5 1.2-2.7 2.7-2.7s2.7 1.2 2.7 2.7c0 1.5-1.2 2.7-2.7 2.7z"/></g></g></svg>