<svg version="1.1" xmlns="http://www.w3.org/2000/svg" x="0" y="0" viewBox="0 0 48 48" xml:space="preserve" enable-background="new 0 0 48 48" width="48" height="48"><title>zzzpremium</title><g class="nc-icon-wrapper" fill="#000000"><g id="Layer_2"><path d="M24 13.4c-2.5 0-4.5 2-4.5 4.5s2 4.5 4.5 4.5 4.5-2 4.5-4.5-2-4.5-4.5-4.5zm0 6.1c-.8 0-1.5-.7-1.5-1.5s.7-1.5 1.5-1.5 1.5.7 1.5 1.5-.7 1.5-1.5 1.5z"/><path d="M41.4 38.2l-6.1-12.6c1.5-2.2 2.3-4.8 2.3-7.6 0-7.5-6.1-13.6-13.6-13.6S10.4 10.5 10.4 18c0 2.8.9 5.4 2.3 7.6L6.6 38.2c-.3.5-.2 1.2.2 1.6s1 .6 1.6.5l5.3-1.5 2.7 4.2c.3.4.8.7 1.3.7h.1c.6 0 1-.4 1.3-.9L23.7 32c.1-.1.1-.3.1-.5h.4c0 .2 0 .3.1.5L29 42.7c.2.5.7.9 1.3.9h.1c.5 0 1-.3 1.3-.7l2.7-4.2 5.3 1.5c.6.2 1.2 0 1.6-.5.2-.4.3-1 .1-1.5zm-24 .8l-1.8-2.8c-.4-.6-1-.8-1.7-.6l-3.1.9 4.1-8.5c1.6 1.5 3.7 2.6 5.9 3.1L17.4 39zm-4-21.1c0-5.8 4.8-10.6 10.6-10.6s10.6 4.8 10.6 10.6S29.8 28.5 24 28.5s-10.6-4.7-10.6-10.6zm20.7 17.7c-.6-.2-1.3.1-1.7.6L30.6 39l-3.4-7.8c2.2-.5 4.2-1.6 5.9-3.1l4.1 8.5-3.1-1z"/></g></g></svg>