<svg version="1.1" xmlns="http://www.w3.org/2000/svg" x="0" y="0" viewBox="0 0 48 48" xml:space="preserve" enable-background="new 0 0 48 48" width="48" height="48"><title>quote filled</title><g class="nc-icon-wrapper" fill="#000000"><g id="Layer_1"><path d="M21.2 9.6H4.5c-.3 0-.5.2-.5.5v16.7c0 .3.2.5.5.5H12L6.8 37.7c-.1.2-.1.4 0 .5.1.2.3.3.5.3h8.3c.2 0 .4-.1.5-.3L21.7 27c0-.1.1-.2.1-.2V10.1c0-.3-.3-.5-.6-.5z"/><path d="M43.5 9.6H26.8c-.3 0-.5.2-.5.5v16.7c0 .3.2.5.5.5h7.5l-5.2 10.3c-.1.2-.1.4 0 .5.1.2.3.3.5.3h8.3c.2 0 .4-.1.5-.3L43.9 27c0-.1.1-.2.1-.2V10.1c0-.3-.2-.5-.5-.5z"/></g></g></svg>