<svg version="1.1" xmlns="http://www.w3.org/2000/svg" x="0" y="0" viewBox="0 0 48 48" xml:space="preserve" enable-background="new 0 0 48 48" width="48" height="48"><title>quote</title><g class="nc-icon-wrapper" fill="#000000"><g id="Layer_1"><path d="M16.1 38.7H8.2c-.5 0-1-.3-1.3-.7-.3-.5-.3-1-.1-1.5l4.2-8.3H5.5c-.8 0-1.5-.7-1.5-1.5V10.8c0-.8.7-1.5 1.5-1.5h15.8c.8 0 1.5.7 1.5 1.5v15.8c0 .2-.1.5-.2.7l-5.3 10.5c-.1.6-.6.9-1.2.9zm-5.4-3.1h4.5l4.7-9.4V12.4H7.1v12.7h6.4c.5 0 1 .3 1.3.7.3.5.3 1 .1 1.5l-4.2 8.3z"/><path d="M37.2 38.7h-7.9c-.5 0-1-.3-1.3-.7-.3-.5-.3-1-.1-1.5l4.2-8.3h-5.4c-.8 0-1.5-.7-1.5-1.5V10.8c0-.8.7-1.5 1.5-1.5h15.8c.8 0 1.5.7 1.5 1.5v15.8c0 .2-.1.5-.2.7l-5.3 10.5c-.2.6-.7.9-1.3.9zm-5.4-3.1h4.5l4.7-9.4V12.4H28.2v12.7h6.4c.5 0 1 .3 1.3.7.3.5.3 1 .1 1.5l-4.2 8.3z"/></g></g></svg>