<svg version="1.1" xmlns="http://www.w3.org/2000/svg" x="0" y="0" viewBox="0 0 48 48" xml:space="preserve" enable-background="new 0 0 48 48" width="48" height="48"><title>receipt</title><g class="nc-icon-wrapper" fill="#000000"><g id="Layer_1"><path d="M41.1 5.6l-.91-.75c-.55-.46-1.36-.46-1.91 0l-2.21 1.83-1.99-1.65c-.55-.46-1.36-.46-1.91 0l-2.18 1.8L28 5.07a1.5 1.5 0 0 0-1.95-.04L24.02 6.7 21.8 5c-.57-.44-1.38-.41-1.91.07L17.94 6.8 16 5.07c-.54-.48-1.34-.51-1.91-.07l-2.2 1.68-2.02-1.8c-.3-.27-.71-.4-1.12-.38-.41.04-.78.24-1.04.56L6.8 6.18c-.21.27-.33.6-.33.94l-.11 33.84c0 .45.2.88.54 1.16l1.25 1.03c.28.23.62.34.96.34.36 0 .72-.13 1-.38l1.87-1.67 1.95 1.62c.55.46 1.36.46 1.91 0l1.99-1.65 1.99 1.65c.56.46 1.36.46 1.91 0l2.18-1.8 1.98 1.77c.54.48 1.34.51 1.91.07l2.22-1.71 2.02 1.67c.55.46 1.36.46 1.91 0l1.99-1.65 1.99 1.65c.55.46 1.36.46 1.91 0l1.13-.94c.34-.28.54-.71.54-1.15l.11-34.22c.03-.44-.17-.87-.52-1.15zm-2.57 34.07l-1.63-1.35c-.55-.46-1.36-.46-1.91 0L33 39.96l-1.99-1.65a1.49 1.49 0 0 0-1.87-.03l-2.19 1.68-2.02-1.8c-.28-.25-.64-.38-1-.38-.34 0-.68.11-.96.34l-2.21 1.83-1.99-1.65c-.55-.46-1.36-.46-1.91 0l-1.99 1.65-1.99-1.65c-.57-.47-1.4-.46-1.96.04l-1.57 1.41.1-31.22 1.36 1.21c.54.48 1.34.51 1.91.07l2.2-1.68 2.02 1.8c.57.51 1.43.51 2 0l2.01-1.8 2.18 1.68c.55.42 1.33.41 1.87-.03l1.96-1.62 1.98 1.77a1.5 1.5 0 0 0 1.95.04l2.22-1.83 1.99 1.65c.55.46 1.36.46 1.91 0l1.62-1.34-.1 31.22z"/><path d="M32.34 29.58l-1.18-.34v-1.95c.26.02.52.06.77.14.25.08.48.2.67.37l1.18-1.43c-.36-.29-.78-.49-1.25-.6s-.93-.17-1.37-.17v-.86h-.81v.86c-.36.04-.71.13-1.05.27-.34.14-.64.32-.89.54-.26.22-.46.49-.62.8s-.23.66-.23 1.04c0 .62.16 1.11.48 1.46.32.36.79.63 1.42.83l.89.27v2.07c-.33-.02-.65-.09-.96-.2-.3-.11-.56-.3-.77-.56l-1.3 1.46c.41.37.88.62 1.42.77.54.15 1.07.22 1.61.22v.86h.81v-.86c.4-.04.78-.13 1.14-.26.36-.13.67-.31.94-.54.27-.23.48-.51.64-.83.16-.33.23-.71.23-1.14 0-.57-.16-1.04-.48-1.42-.32-.37-.75-.64-1.29-.8zm-1.99-.54c-.05-.02-.12-.04-.22-.06s-.2-.07-.29-.13-.18-.14-.26-.25a.794.794 0 0 1-.11-.44c0-.26.09-.45.27-.58.18-.12.38-.21.61-.26v1.72zm1.76 3.27c-.06.1-.14.19-.24.26-.1.07-.21.13-.34.18-.13.04-.25.08-.37.1v-1.84l.23.09c.11.04.21.08.31.13.1.04.18.1.26.16.07.06.13.14.18.23s.07.2.07.33a.88.88 0 0 1-.1.36z"/><path d="M34.59 14.03H12.35c-.83 0-1.5.67-1.5 1.5s.67 1.5 1.5 1.5h22.24c.83 0 1.5-.67 1.5-1.5s-.67-1.5-1.5-1.5z"/><path d="M34.59 19.59H12.35c-.83 0-1.5.67-1.5 1.5s.67 1.5 1.5 1.5h22.24c.83 0 1.5-.67 1.5-1.5s-.67-1.5-1.5-1.5z"/><path d="M23.47 25.15H12.35c-.83 0-1.5.67-1.5 1.5s.67 1.5 1.5 1.5h11.12c.83 0 1.5-.67 1.5-1.5s-.67-1.5-1.5-1.5z"/></g></g></svg>