<svg version="1.1" xmlns="http://www.w3.org/2000/svg" x="0" y="0" viewBox="0 0 48 48" xml:space="preserve" enable-background="new 0 0 48 48" width="48" height="48"><title>received</title><g class="nc-icon-wrapper" fill="#000000"><g id="Layer_1"><path d="M37.85 22.22h-1.78c-1.23 0-2.22 1-2.22 2.22 0 1.23 1 2.22 2.22 2.22h1.78c.94 0 1.7.77 1.7 1.71v6.47c0 .94-.76 1.7-1.7 1.7h-27.7c-.94 0-1.71-.77-1.71-1.7v-6.47c0-.94.77-1.71 1.7-1.71h1.38c1.23 0 2.22-1 2.22-2.22 0-1.23-1-2.22-2.22-2.22h-1.38C6.76 22.23 4 24.99 4 28.38v6.47c0 3.39 2.76 6.14 6.15 6.15h27.7c3.39 0 6.15-2.76 6.15-6.15v-6.47c0-3.4-2.76-6.16-6.15-6.16z"/><path d="M22.43 28.58c.42.42.98.65 1.57.65.59 0 1.15-.23 1.57-.65l5.9-5.91c.87-.87.87-2.28 0-3.14-.87-.87-2.28-.87-3.14 0l-2.11 2.11V9.23C26.22 8 25.23 7 24 7s-2.22 1-2.22 2.22v12.42l-2.11-2.11c-.87-.87-2.27-.87-3.14 0s-.87 2.27 0 3.14l5.9 5.91z"/></g></g></svg>