<svg version="1.1" xmlns="http://www.w3.org/2000/svg" x="0" y="0" viewBox="0 0 48 48" xml:space="preserve" enable-background="new 0 0 48 48" width="48" height="48"><title>refresh</title><g class="nc-icon-wrapper" fill="#000000"><path d="M4.56 23.32c.75-.75 1.96-.75 2.71 0l2.16 2.16V24c0-9.53 7.75-17.28 17.28-17.28S44 14.47 44 24s-7.75 17.28-17.28 17.28a1.92 1.92 0 0 1 0-3.84c7.41 0 13.44-6.03 13.44-13.44s-6.03-13.44-13.44-13.44S13.28 16.59 13.28 24v2.18l2.86-2.86c.75-.75 1.96-.75 2.71 0s.75 1.96 0 2.71l-5.79 5.79a1.932 1.932 0 0 1-2.72 0l-5.79-5.79c-.74-.75-.74-1.97.01-2.71z" id="Layer_1"/></g></svg>