<svg version="1.1" xmlns="http://www.w3.org/2000/svg" x="0" y="0" viewBox="0 0 48 48" xml:space="preserve" enable-background="new 0 0 48 48" width="48" height="48"><title>reorder</title><g class="nc-icon-wrapper"><g id="Layer_1"><path class="st23" d="M42.06 19.09H5.94c-1.07 0-1.94.78-1.94 1.74s.87 1.74 1.94 1.74h36.13c1.07 0 1.94-.78 1.94-1.74-.01-.96-.88-1.74-1.95-1.74z" style="" fill="#252830"/><path class="st23" d="M5.94 16.24h36.13c1.07 0 1.94-.78 1.94-1.74s-.87-1.74-1.94-1.74H5.94c-1.07 0-1.94.78-1.94 1.74s.87 1.74 1.94 1.74z" style="" fill="#252830"/><path class="st23" d="M42.06 31.76H5.94c-1.07 0-1.94.78-1.94 1.74s.87 1.74 1.94 1.74h36.13c1.07 0 1.94-.78 1.94-1.74-.01-.96-.88-1.74-1.95-1.74z" style="" fill="#252830"/><path class="st23" d="M42.06 25.42H5.94c-1.07 0-1.94.78-1.94 1.75s.87 1.74 1.94 1.74h36.13c1.07 0 1.94-.78 1.94-1.74s-.88-1.75-1.95-1.75z" style="" fill="#252830"/></g></g></svg>