<svg version="1.1" xmlns="http://www.w3.org/2000/svg" x="0" y="0" viewBox="0 0 48 48" xml:space="preserve" enable-background="new 0 0 48 48" width="48" height="48"><title>replay</title><g class="nc-icon-wrapper" fill="#000000"><path d="M43.44 23.32c-.75-.75-1.96-.75-2.71 0l-2.16 2.16V24c0-9.53-7.75-17.28-17.28-17.28S4 14.47 4 24s7.75 17.28 17.28 17.28a1.92 1.92 0 0 0 0-3.84c-7.41 0-13.44-6.03-13.44-13.44s6.03-13.44 13.44-13.44S34.72 16.59 34.72 24v2.18l-2.86-2.86c-.75-.75-1.96-.75-2.71 0s-.75 1.96 0 2.71l5.79 5.79a1.932 1.932 0 0 0 2.72 0l5.79-5.79c.74-.75.74-1.97-.01-2.71z" id="Layer_1"/></g></svg>