<svg version="1.1" xmlns="http://www.w3.org/2000/svg" x="0" y="0" viewBox="0 0 48 48" xml:space="preserve" enable-background="new 0 0 48 48" width="48" height="48"><title>right align</title><g class="nc-icon-wrapper"><g id="Layer_1"><path class="st23" d="M41.5 31.61h-35a2.5 2.5 0 0 1 0-5h35a2.5 2.5 0 0 1 0 5z" id="Stroke_4_5_" style="" fill="#252830"/><path class="st23" d="M41.5 11.19h-35a2.5 2.5 0 0 1 0-5h35a2.5 2.5 0 0 1 0 5z" id="Stroke_4_Copy_5_" style="" fill="#252830"/><path class="st23" d="M41.5 41.82H16.51a2.5 2.5 0 0 1 0-5H41.5a2.5 2.5 0 0 1 0 5z" id="Stroke_4_Copy_2_9_" style="" fill="#252830"/><path class="st23" d="M41.5 21.4H16.51a2.5 2.5 0 0 1 0-5H41.5a2.5 2.5 0 0 1 0 5z" id="Stroke_4_Copy_2_8_" style="" fill="#252830"/></g></g></svg>