<svg version="1.1" xmlns="http://www.w3.org/2000/svg" x="0" y="0" viewBox="0 0 48 48" xml:space="preserve" enable-background="new 0 0 48 48" width="48" height="48"><title>rightSmall</title><g class="nc-icon-wrapper" fill="#000000"><path d="M41.46 21.94L28.53 8.9a3.051 3.051 0 0 0-4.32-.02 3.051 3.051 0 0 0-.02 4.32l7.7 7.77H8.72a3.06 3.06 0 1 0 0 6.12H31.8l-7.89 7.65a3.06 3.06 0 0 0-.07 4.32c.6.62 1.4.93 2.2.93.77 0 1.53-.29 2.13-.86l13.25-12.85a3.039 3.039 0 0 0 .04-4.34z" id="Layer_1"/></g></svg>