<svg version="1.1" xmlns="http://www.w3.org/2000/svg" x="0" y="0" viewBox="0 0 48 48" xml:space="preserve" enable-background="new 0 0 48 48" width="48" height="48"><title>search</title><g class="nc-icon-wrapper" fill="#000000"><path d="M42.39 40.39l-9.42-9.42c5.78-6.31 5.63-16.14-.48-22.25A16.015 16.015 0 0 0 21.1 4c-4.3 0-8.35 1.68-11.39 4.72-3.04 3.04-4.72 7.09-4.72 11.39s1.68 8.35 4.72 11.39a16.05 16.05 0 0 0 11.39 4.71c3 0 6-.84 8.63-2.51l9.68 9.68c.41.41.95.62 1.49.62s1.08-.21 1.49-.62c.83-.82.83-2.16 0-2.99zM12.7 28.52c-2.25-2.25-3.48-5.23-3.48-8.4s1.24-6.16 3.48-8.4 5.23-3.48 8.4-3.48 6.16 1.24 8.4 3.48c4.63 4.63 4.63 12.18 0 16.81-4.63 4.62-12.17 4.62-16.8-.01z" id="Layer_1"/></g></svg>