<svg version="1.1" xmlns="http://www.w3.org/2000/svg" x="0" y="0" viewBox="0 0 48 48" xml:space="preserve" enable-background="new 0 0 48 48" width="48" height="48"><title>sent2</title><g class="nc-icon-wrapper" fill="#000000"><g id="Layer_1"><g id="send-2_2_" transform="translate(.5 .5)"><path d="M29.02 43.5c-.86 0-1.65-.5-2.02-1.29l-7.36-15.94c-.39-.85-.21-1.84.45-2.5l7.36-7.36c.87-.87 2.27-.87 3.14 0 .87.87.87 2.27 0 3.14l-6.26 6.26 4.39 9.51L37.69 9.3l-26.02 8.97 5.97 2.75c1.12.52 1.6 1.83 1.09 2.95a2.232 2.232 0 0 1-2.95 1.09L4.79 20a2.236 2.236 0 0 1-1.29-2.13c.04-.91.64-1.69 1.49-1.99L40.55 3.62c.8-.28 1.69-.07 2.3.53s.81 1.49.53 2.3L31.12 42c-.3.86-1.08 1.45-1.99 1.49-.04.01-.08.01-.11.01z" id="Path_94_2_"/></g></g></g></svg>