<svg version="1.1" xmlns="http://www.w3.org/2000/svg" x="0" y="0" viewBox="0 0 48 48" xml:space="preserve" enable-background="new 0 0 48 48" width="48" height="48"><title>sent</title><g class="nc-icon-wrapper" fill="#000000"><g id="Layer_1"><path d="M37.85 22.22h-1.78c-1.23 0-2.22 1-2.22 2.22 0 1.23 1 2.22 2.22 2.22h1.78c.94 0 1.7.77 1.7 1.71v6.47c0 .94-.76 1.7-1.7 1.7h-27.7c-.94 0-1.71-.77-1.71-1.7v-6.47c0-.94.77-1.71 1.7-1.71h1.38c1.23 0 2.22-1 2.22-2.22 0-1.23-1-2.22-2.22-2.22h-1.38C6.76 22.22 4 24.99 4 28.37v6.47c0 3.39 2.76 6.14 6.15 6.15h27.7c3.39 0 6.15-2.76 6.15-6.15v-6.47c0-3.39-2.76-6.15-6.15-6.15z"/><path d="M19.67 16.7l2.11-2.11v12.42c0 1.23 1 2.22 2.22 2.22s2.22-1 2.22-2.22V14.59l2.11 2.11a2.219 2.219 0 0 0 3.14 0c.87-.87.87-2.27 0-3.14l-5.91-5.91c-.83-.83-2.31-.83-3.14 0l-5.91 5.91c-.87.87-.87 2.27 0 3.14s2.29.87 3.16 0z"/></g></g></svg>