<svg version="1.1" xmlns="http://www.w3.org/2000/svg" x="0" y="0" viewBox="0 0 48 48" xml:space="preserve" enable-background="new 0 0 48 48" width="48" height="48"><title>settings</title><g class="nc-icon-wrapper" fill="#000000"><g id="Layer_1"><path d="M24 30.41c-3.53 0-6.41-2.88-6.41-6.41s2.88-6.41 6.41-6.41 6.41 2.88 6.41 6.41-2.88 6.41-6.41 6.41zm0-9.82c-1.88 0-3.41 1.53-3.41 3.41s1.53 3.41 3.41 3.41 3.41-1.53 3.41-3.41-1.53-3.41-3.41-3.41z"/><path d="M24.13 43.5c-2.63 0-4.77-2.14-4.77-4.77v-.15a1.18 1.18 0 0 0-.78-1.06l-.11-.04c-.4-.18-.96-.09-1.31.25l-.09.09c-.9.9-2.1 1.4-3.38 1.4-1.28 0-2.47-.5-3.38-1.4-.9-.9-1.4-2.1-1.4-3.38s.5-2.48 1.4-3.38l.09-.09c.21-.22.34-.52.34-.83 0-.16-.03-.3-.08-.44-.01-.01-.01-.03-.02-.05-.2-.45-.62-.73-1.1-.74h-.27c-2.63 0-4.77-2.14-4.77-4.77s2.14-4.77 4.77-4.77h.15c.46-.01.89-.32 1.06-.78l.04-.11a1.196 1.196 0 0 0-.24-1.31l-.09-.09c-.9-.9-1.4-2.1-1.4-3.38 0-1.28.5-2.47 1.4-3.38.9-.9 2.1-1.4 3.38-1.4s2.48.5 3.38 1.4l.09.09c.33.32.85.42 1.28.25l.15-.06c.07-.03.14-.04.21-.06.34-.22.55-.59.55-1v-.27c0-2.63 2.14-4.77 4.77-4.77s4.77 2.14 4.77 4.77v.15c0 .46.27.88.69 1.08.02.01.05.02.07.03.4.18.97.09 1.31-.25l.09-.09c.9-.9 2.1-1.4 3.38-1.4 1.28 0 2.47.5 3.38 1.4.9.9 1.4 2.1 1.4 3.38s-.5 2.48-1.4 3.38l-.09.09c-.21.22-.34.52-.34.83 0 .16.03.3.08.44l.06.15c.03.07.04.14.06.21.22.34.59.55 1 .55h.27c2.63 0 4.77 2.14 4.77 4.77s-2.14 4.77-4.77 4.77h-.15c-.46 0-.88.27-1.08.69-.01.02-.02.05-.03.07a1.196 1.196 0 0 0 .24 1.31l.09.09c.9.9 1.4 2.1 1.4 3.38 0 1.28-.5 2.47-1.4 3.38-.9.9-2.1 1.4-3.38 1.4s-2.48-.5-3.38-1.4l-.09-.09c-.33-.32-.85-.42-1.28-.25-.01.01-.03.01-.05.02-.45.2-.73.62-.74 1.1v.27c.02 2.63-2.12 4.77-4.75 4.77zm-4.42-8.75c1.61.67 2.61 2.13 2.65 3.8v.18c0 .98.79 1.77 1.77 1.77s1.77-.79 1.77-1.77v-.28c.01-1.63.96-3.11 2.44-3.8l.06-.03c1.54-.7 3.44-.36 4.66.83l.11.1c.68.68 1.85.67 2.51.01.34-.34.52-.78.52-1.26s-.18-.92-.52-1.25l-.1-.1a4.195 4.195 0 0 1-.87-4.6l.03-.06a4.219 4.219 0 0 1 3.83-2.52h.15c.98 0 1.77-.79 1.77-1.77s-.79-1.77-1.77-1.77h-.28c-1.67-.01-3.17-1-3.84-2.54-.06-.13-.09-.27-.11-.41-.16-.45-.24-.92-.24-1.41 0-1.1.42-2.15 1.2-2.94l.1-.11c.34-.34.53-.79.53-1.26s-.18-.92-.52-1.25c-.68-.68-1.84-.67-2.51 0l-.1.1c-.8.78-1.84 1.21-2.95 1.21-.57 0-1.14-.12-1.66-.34-.02-.01-.04-.02-.05-.02a4.219 4.219 0 0 1-2.52-3.83v-.16c0-.98-.79-1.77-1.77-1.77s-1.77.79-1.77 1.77v.28c-.01 1.67-1 3.17-2.54 3.84-.13.06-.27.09-.41.11-1.47.53-3.21.16-4.35-.96l-.11-.1c-.68-.68-1.85-.67-2.51-.01-.34.34-.52.78-.52 1.26s.18.92.52 1.25l.1.1c.78.8 1.21 1.84 1.21 2.95 0 .59-.13 1.18-.37 1.71-.67 1.61-2.13 2.61-3.8 2.65h-.18c-.98 0-1.77.79-1.77 1.77s.79 1.77 1.77 1.77h.28c1.63.01 3.11.96 3.8 2.44l.03.06c.25.54.37 1.12.37 1.72 0 1.1-.42 2.15-1.2 2.94l-.1.11c-.34.34-.53.79-.53 1.26s.18.92.52 1.25c.68.68 1.84.67 2.51 0l.1-.1c.8-.78 1.84-1.21 2.95-1.21.59.02 1.19.14 1.71.39zm16.4-5.84z"/></g></g></svg>