<svg version="1.1" xmlns="http://www.w3.org/2000/svg" x="0" y="0" viewBox="0 0 48 48" xml:space="preserve" enable-background="new 0 0 48 48" width="48" height="48"><title>slide show</title><g class="nc-icon-wrapper" fill="#000000"><g id="Layer_1"><path d="M33.72 15.19H14.03c-.56 0-1.02.46-1.02 1.02v15.58c0 .56.46 1.02 1.02 1.02h19.68c.56 0 1.02-.46 1.02-1.02V16.21a1.01 1.01 0 0 0-1.01-1.02zM32.7 30.77H15.05V17.23H32.7v13.54z"/><path d="M42.98 30.77h-3.21V17.23h3.21c.56 0 1.02-.46 1.02-1.02s-.46-1.02-1.02-1.02h-4.23c-.56 0-1.02.46-1.02 1.02v15.58c0 .56.46 1.02 1.02 1.02h4.23c.56 0 1.02-.46 1.02-1.02s-.46-1.02-1.02-1.02z"/><path d="M9.24 15.19H5.02c-.56 0-1.02.46-1.02 1.02s.46 1.02 1.02 1.02h3.21v13.54H5.02c-.56 0-1.02.46-1.02 1.02s.46 1.02 1.02 1.02h4.23c.56 0 1.02-.46 1.02-1.02V16.21c-.01-.56-.46-1.02-1.03-1.02z"/></g></g></svg>