<svg version="1.1" xmlns="http://www.w3.org/2000/svg" x="0" y="0" viewBox="0 0 48 48" xml:space="preserve" enable-background="new 0 0 48 48" width="48" height="48"><title>title</title><g class="nc-icon-wrapper" fill="#000000"><g id="Layer_2"><g id="Rectangle_778" transform="translate(2203 2851)"><path class="st24" d="M-2194.71-2844.14h31.43a4.29 4.29 0 0 1 4.29 4.29v25.71a4.29 4.29 0 0 1-4.29 4.29h-31.43a4.29 4.29 0 0 1-4.29-4.29v-25.71a4.29 4.29 0 0 1 4.29-4.29z" style="" fill="none"/><path d="M-2191-2809.79h-3.71c-2.4 0-4.36-1.95-4.36-4.36v-25.71c0-2.4 1.96-4.36 4.36-4.36h3.71c.83 0 1.5.67 1.5 1.5s-.67 1.5-1.5 1.5h-3.71c-.75 0-1.36.61-1.36 1.36v25.71c0 .75.61 1.36 1.36 1.36h3.71c.83 0 1.5.67 1.5 1.5s-.67 1.5-1.5 1.5z"/><path d="M-2163.29-2809.79h-3.71c-.83 0-1.5-.67-1.5-1.5s.67-1.5 1.5-1.5h3.71c.75 0 1.36-.61 1.36-1.36v-25.71c0-.75-.61-1.36-1.36-1.36h-3.71c-.83 0-1.5-.67-1.5-1.5s.67-1.5 1.5-1.5h3.71c2.4 0 4.36 1.95 4.36 4.36v25.71c0 2.41-1.95 4.36-4.36 4.36z"/></g><path d="M22.17 33.8a.663.663 0 0 1-.2-.49V17.57h-5.29c-.19 0-.35-.07-.49-.2-.13-.13-.2-.3-.2-.51v-2.14c0-.21.06-.38.19-.51s.29-.2.5-.2h14.6c.21 0 .38.07.51.2s.2.3.2.51v2.14c0 .21-.07.38-.2.51s-.3.2-.51.2h-5.26v15.74c0 .19-.06.35-.19.49-.12.13-.29.2-.5.2h-2.69c-.17 0-.33-.07-.47-.2z" class="st67" enable-background="new"/></g></g></svg>