<svg xmlns="http://www.w3.org/2000/svg" viewBox="0 0 48 48" width="48" height="48"><title>tools</title><g class="nc-icon-wrapper" fill="#000000"><path d="M42.63 33l-9.25-9.25a4.17 4.17 0 0 0 1-1.87 7.1 7.1 0 0 0 4.47-2 6.93 6.93 0 0 0 1.87-3.45 1.76 1.76 0 0 0 .1-.3l2.39-9a1.74 1.74 0 0 0 0-1 1.86 1.86 0 0 0-2.28-1.32l-9 2.38-.3.11a6.9 6.9 0 0 0-3.46 1.88 7.1 7.1 0 0 0-2 4.15 4 4 0 0 0-1.91.82 2.5 2.5 0 0 0-.24.22l-8.81-8.78a3 3 0 0 0-4.19 0l-5.17 5.17a3 3 0 0 0-.85 2.1A2.92 2.92 0 0 0 5.85 15l9.59 9.6c-.33.31-.66.63-1 1-1.34 1.34-13 13.2-9.19 17a2.73 2.73 0 0 0 2 .78c1.35 0 3.13-.69 5.37-2.07a56.37 56.37 0 0 0 9.61-7.89c.33-.32.65-.65 1-1l10 10a2.92 2.92 0 0 0 2.09.87 3 3 0 0 0 2.1-.87l5.17-5.17a3 3 0 0 0 .04-4.25zM30.29 11.33a3.87 3.87 0 0 1 2.11-1.08 1.57 1.57 0 0 0 .46-.16l6.93-1.84L38 15.18a1.48 1.48 0 0 0-.16.46 3.84 3.84 0 0 1-1.08 2.1 4.06 4.06 0 0 1-3 1.16l-4.57-4.57a4.07 4.07 0 0 1 1.1-3zm-4.17 5.22a1.05 1.05 0 0 1 .65-.23.8.8 0 0 1 .15 0l4.5 4.5a1 1 0 0 1-.74 1.18 1.09 1.09 0 0 1-.94-.18l-.15-.1v-.06L26 18.13a.47.47 0 0 0-.06-.09 1 1 0 0 1-.21-.78 1 1 0 0 1 .39-.71zm-10.83 3.62l1.31-1.31a1.5 1.5 0 1 0-2.12-2.12l-1.32 1.31L11.09 16l3.13-3.13a1.51 1.51 0 0 0 0-2.12 1.49 1.49 0 0 0-2.12 0L9 13.87l-1-1 5.12-5.17 9.64 9.64a3.86 3.86 0 0 0 .11 1.07 54.21 54.21 0 0 0-5.2 4.09zM7.5 40.28c.13-1.54 3-6.55 9.08-12.65a57.88 57.88 0 0 1 7.94-6.73l2.36 2.36a57.65 57.65 0 0 1-6.73 7.94C14.05 37.3 9 40.15 7.5 40.28zm27.89 0l-1.47-1.46 1.3-1.3a1.5 1.5 0 0 0-2.12-2.12l-1.3 1.3-2.07-2.1 3.11-3.11a1.5 1.5 0 0 0-2.12-2.12l-3.11 3.11-2.34-2.34a52.67 52.67 0 0 0 4.09-5.2 4.45 4.45 0 0 0 1.09.13l10.06 10z" id="Layer_2" data-name="Layer 2"/></g></svg>