<svg xmlns="http://www.w3.org/2000/svg" viewBox="0 0 48 48" width="48" height="48"><title>toolbox</title><g class="nc-icon-wrapper" fill="#000000"><path d="M39.73 12.66h-5.54v-3.4a2.67 2.67 0 0 0-2.53-2.78h-15a2.67 2.67 0 0 0-2.53 2.78v3.4H8.27A4.08 4.08 0 0 0 4.5 17v9.14a1.49 1.49 0 0 0 .93 1.39v9.67a4.08 4.08 0 0 0 3.77 4.32h30.22A3.37 3.37 0 0 0 42.57 38V27.51a1.49 1.49 0 0 0 .93-1.39V17a4.08 4.08 0 0 0-3.77-4.34zM17.12 9.48h14.07v3.18H17.12zM7.5 17c0-.81.46-1.32.77-1.32h31.46c.31 0 .77.51.77 1.32v7.64h-8.8a2.66 2.66 0 0 0-2.52-2.7h-10a2.66 2.66 0 0 0-2.52 2.7H7.5zm12.1 7.94h9.11v3.16H19.6zm20 13a1.1 1.1 0 0 1-.15.55H9.2c-.31 0-.77-.52-.77-1.32v-9.55h8.17v.7a2.67 2.67 0 0 0 2.53 2.78h10.05a2.67 2.67 0 0 0 2.53-2.78v-.7h7.86z" id="Layer_2" data-name="Layer 2"/></g></svg>