<svg id="Layer_1" data-name="Layer 1" xmlns="http://www.w3.org/2000/svg" viewBox="0 0 48 48" width="48" height="48"><title>undo</title><g class="nc-icon-wrapper" fill="#000000"><path d="M37.29 23.54c-5.14-8.13-15.57-10.36-22.53-10.9l4-4.06a2.34 2.34 0 1 0-3.32-3.29l-7.84 7.9a2.36 2.36 0 0 0-.08 3.23l7.84 8.65a2.34 2.34 0 1 0 3.47-3.15l-4.13-4.58c5.87.51 14.62 2.36 18.63 8.7 3.43 5.45 3.25 11.56 2.83 14.72a2.35 2.35 0 0 0 2 2.63h.3a2.34 2.34 0 0 0 2.32-2c.52-3.81.73-11.15-3.49-17.85z"/></g></svg>