<svg version="1.1" xmlns="http://www.w3.org/2000/svg" x="0" y="0" viewBox="0 0 48 48" xml:space="preserve" enable-background="new 0 0 48 48" width="48" height="48"><title>upload</title><g class="nc-icon-wrapper" fill="#000000"><g id="Layer_1"><path d="M15.91 15.23c.44 0 .89-.16 1.25-.48l5.22-4.73.01 21.91c0 1.03.83 1.86 1.86 1.86 1.03 0 1.86-.83 1.86-1.86l-.01-21.59 4.39 4.35c.73.72 1.9.72 2.63-.01.72-.73.72-1.91-.01-2.63l-7.58-7.51a1.86 1.86 0 0 0-2.55-.06l-8.3 7.51c-.76.69-.82 1.86-.13 2.63.35.4.85.61 1.36.61z"/><path d="M35.77 19.3c-.07-.01-.14-.01-.21-.01h-1.48c-1.03 0-1.86.83-1.86 1.86 0 1.03.83 1.86 1.86 1.86h1.36c.96.15 1.65 1.03 1.55 2.01-.01.06-.01.12-.01.18v12.91c0 .06 0 .12.01.17.09.97-.6 1.85-1.55 2H12.55a1.86 1.86 0 0 1-1.55-2c.01-.06.01-.12.01-.17V25.19c0-.06 0-.12-.01-.18-.09-.97.6-1.85 1.55-2.01h1.04c1.03 0 1.86-.83 1.86-1.86 0-1.03-.83-1.86-1.86-1.86h-1.16c-.07 0-.14 0-.21.01-2.97.33-5.16 3-4.93 5.97v12.75c-.23 2.96 1.96 5.63 4.93 5.96.07.03.14.03.21.03h23.14c.07 0 .14 0 .21-.01 2.96-.34 5.16-3 4.93-5.96V25.27c.23-2.97-1.97-5.63-4.94-5.97z"/></g></g></svg>