<svg version="1.1" xmlns="http://www.w3.org/2000/svg" x="0" y="0" viewBox="0 0 48 48" xml:space="preserve" enable-background="new 0 0 48 48" width="48" height="48"><title>video</title><g class="nc-icon-wrapper" fill="#000000"><path d="M25.7 38.15H10.59C6.96 38.15 4 35.19 4 31.56V16.44c0-3.63 2.96-6.59 6.59-6.59H25.7c3.63 0 6.59 2.96 6.59 6.59v1.33l9.3-5.87c.48-.31 1.1-.32 1.6-.05.5.28.81.8.81 1.38v21.54c0 .57-.31 1.1-.81 1.38-.5.28-1.11.26-1.6-.05l-9.3-5.87v1.33c0 3.63-2.95 6.59-6.59 6.59zM10.59 13c-1.9 0-3.45 1.55-3.45 3.45v15.11c0 1.9 1.55 3.45 3.45 3.45H25.7c1.9 0 3.45-1.55 3.45-3.45v-4.18c0-.57.31-1.1.81-1.38.5-.28 1.11-.26 1.6.05l9.3 5.87V16.08l-9.3 5.87c-.49.31-1.1.32-1.6.05-.5-.28-.81-.8-.81-1.38v-4.18c0-1.9-1.55-3.45-3.45-3.45H10.59z" id="Layer_1"/></g></svg>