<svg version="1.1" xmlns="http://www.w3.org/2000/svg" x="0" y="0" viewBox="0 0 48 48" xml:space="preserve" enable-background="new 0 0 48 48" width="48" height="48"><title>video replay</title><g class="nc-icon-wrapper" fill="#000000"><g id="Layer_1"><path d="M41.17 38.26l-1.73.2.41-.52c6.73-8.73 5.1-21.3-3.61-28.02-8.64-6.84-21.23-5.39-28.09 3.27-6.73 8.73-5.1 21.3 3.62 28.03a1.712 1.712 0 0 0 2.41-.31c.58-.75.44-1.83-.31-2.41-7.23-5.57-8.58-15.99-3.02-23.2 5.67-7.15 16.11-8.36 23.28-2.68 7.23 5.57 8.58 15.99 3.01 23.21l-.76.97-.33-2.55c-.12-.94-.98-1.61-1.92-1.48-.94.12-1.6.98-1.48 1.92l.8 6.2c.11.86.85 1.5 1.7 1.5.07 0 .13 0 .2-.01l6.21-.72c.94-.11 1.61-.96 1.51-1.9-.11-.93-.96-1.61-1.9-1.5z"/><path d="M19.29 33.79l12.6-7.87-12.6-7.87z"/></g></g></svg>