<svg version="1.1" xmlns="http://www.w3.org/2000/svg" x="0" y="0" viewBox="0 0 48 48" xml:space="preserve" enable-background="new 0 0 48 48" width="48" height="48"><title>volumn</title><g class="nc-icon-wrapper" fill="#000000"><g id="Layer_1"><path d="M26.02 10.68c-.48-.26-1.06-.25-1.52.04l-8.87 5.58c-.02 0-.05-.01-.07-.01H11.73c-2.04 0-3.96.78-5.41 2.21A7.723 7.723 0 0 0 4 23.97c.04 4.24 3.5 7.66 7.73 7.66h3.83l8.94 5.63c.24.15.52.23.8.23.25 0 .5-.06.72-.19.48-.26.78-.77.78-1.31V12c0-.55-.3-1.05-.78-1.32zM11.79 28.64h-.06c-2.59 0-4.7-2.09-4.73-4.66.02-2.59 2.14-4.68 4.74-4.68h2.31v9.34h-2.26zm12.01 4.65l-6.74-4.24V18.96l6.74-4.24v18.57z"/><path d="M38.89 11.79a1.5 1.5 0 0 0-2.1 2.14c2.67 2.61 4.2 6.24 4.21 9.97 0 3.73-1.54 7.37-4.2 9.97a1.5 1.5 0 0 0 2.1 2.14c3.24-3.17 5.1-7.59 5.1-12.12-.01-4.51-1.87-8.93-5.11-12.1z"/><path d="M35.17 14.29a1.5 1.5 0 0 0-2.1 2.14c4.13 4.06 4.18 10.72.12 14.84l-.23.22c-.6.57-.62 1.52-.04 2.12a1.502 1.502 0 0 0 2.12.04l.29-.29c2.53-2.57 3.9-5.97 3.87-9.58-.02-3.58-1.46-6.96-4.03-9.49z"/><path d="M31.47 16.79a1.5 1.5 0 0 0-2.1 2.14 6.976 6.976 0 0 1 2.09 4.93 6.92 6.92 0 0 1-2.01 4.96l-.08.08-.07.07c-.59.58-.57 1.5.01 2.09.29.29.67.43 1.06.43.4 0 .79-.15 1.09-.44l.13-.13a9.938 9.938 0 0 0 2.87-7.09 9.928 9.928 0 0 0-2.99-7.04z"/></g></g></svg>