<svg version="1.1" xmlns="http://www.w3.org/2000/svg" x="0" y="0" viewBox="0 0 48 48" xml:space="preserve" enable-background="new 0 0 48 48" width="48" height="48"><title>zvolume2</title><g class="nc-icon-wrapper" fill="#000000"><g id="Layer_1"><path d="M30.1 9.4c-.5-.3-1.2-.3-1.7.1l-9.9 6.2h-4.3-.1c-2.3 0-4.4.9-6 2.5-1.6 1.6-2.6 3.8-2.6 6.1 0 4.7 3.9 8.6 8.6 8.6h4.3l10 6.3c.3.2.6.3.9.3.3 0 .6-.1.8-.2.5-.3.9-.9.9-1.5V10.9c0-.7-.4-1.2-.9-1.5zm-15.9 20c-1.4.1-2.7-.5-3.7-1.5s-1.6-2.3-1.6-3.7c0-1.4.6-2.7 1.6-3.7s2.3-1.5 3.7-1.5h2.6v10.4h-2.6zm13.4 5.1l-7.5-4.7V18.6l7.5-4.7v20.6z"/><g id="Group_12_3_" transform="translate(20.129 2.537)"><path d="M18.8 32.7c-.4 0-.7-.1-1-.4-.5-.6-.5-1.5 0-2l.3-.3c2.2-2.3 3.5-5.3 3.4-8.5 0-3.2-1.3-6.2-3.6-8.4-.6-.5-.6-1.4 0-2 .5-.6 1.4-.6 2 0 2.8 2.8 4.4 6.5 4.4 10.4s-1.5 7.7-4.2 10.5l-.3.3c-.3.2-.6.4-1 .4z" id="Stroke_11_3_"/></g><g id="Group_16_3_" transform="translate(17.806 4.817)"><path d="M17.1 27.6c-.4 0-.7-.1-1-.4-.5-.6-.5-1.5 0-2 1.6-1.5 2.4-3.5 2.5-5.7 0-2.2-.8-4.3-2.4-5.8-.6-.5-.6-1.4 0-2 .5-.6 1.4-.6 2 0 2.1 2.1 3.3 4.9 3.2 7.8 0 3-1.2 5.7-3.3 7.8-.3.1-.7.3-1 .3z" id="Stroke_15_4_"/></g></g></g></svg>