<svg version="1.1" xmlns="http://www.w3.org/2000/svg" x="0" y="0" viewBox="0 0 48 48" xml:space="preserve" enable-background="new 0 0 48 48" width="48" height="48"><title>warning</title><g class="nc-icon-wrapper" fill="#000000"><g id="Layer_2"><path d="M43.2 36.3L27 8.2c-.6-1.1-1.8-1.7-3-1.7s-2.4.7-3 1.7l-16.2 28c-.6 1.1-.6 2.4 0 3.5s1.8 1.8 3 1.8h32.4c1.3 0 2.4-.7 3-1.8s.6-2.3 0-3.4zm-2.6 2c-.1.1-.2.2-.4.2H7.8c-.3 0-.4-.2-.4-.2-.1-.1-.1-.3 0-.5l16.2-28c.1-.2.3-.3.4-.3s.3 0 .4.2l16.2 28c.1.3.1.5 0 .6z"/><path d="M24 28.7c.8 0 1.5-.7 1.5-1.5v-8.1c0-.8-.7-1.5-1.5-1.5s-1.5.7-1.5 1.5v8.1c0 .9.7 1.5 1.5 1.5z"/><circle cx="24" cy="33" r="2.1"/></g></g></svg>