<svg xmlns="http://www.w3.org/2000/svg" viewBox="0 0 48 48" width="48" height="48"><title>window</title><g class="nc-icon-wrapper" fill="#000000"><g id="Layer_2" data-name="Layer 2"><path d="M26.17 29v12.78a2.22 2.22 0 0 0 4.44 0V31.24h11a2.23 2.23 0 0 0 0-4.45H28.39A2.22 2.22 0 0 0 26.17 29z"/><path d="M21.83 41.78V29a2.22 2.22 0 0 0-2.22-2.22H6.39a2.23 2.23 0 0 0 0 4.45h11v10.55a2.22 2.22 0 0 0 4.44 0z"/><path d="M26.17 19.38V6.62a2.22 2.22 0 1 1 4.44 0v10.54h11a2.22 2.22 0 0 1 0 4.44H28.39a2.21 2.21 0 0 1-2.22-2.22z"/><path d="M21.83 6.62v12.76a2.21 2.21 0 0 1-2.22 2.22H6.39a2.22 2.22 0 1 1 0-4.44h11V6.62a2.22 2.22 0 1 1 4.44 0z"/></g></g></svg>