<svg version="1.1" xmlns="http://www.w3.org/2000/svg" x="0" y="0" viewBox="0 0 48 48" xml:space="preserve" enable-background="new 0 0 48 48" width="48" height="48"><title>youtube</title><g class="nc-icon-wrapper"><g id="Layer_1"><path class="st23" d="M20.51 15.14c-.33-.25-.77-.29-1.13-.1-.37.18-.6.56-.6.97V32c0 .41.23.78.6.97.15.08.32.11.48.11.23 0 .46-.07.65-.22l10.63-8c.27-.2.43-.52.43-.86s-.16-.66-.43-.86l-10.63-8zm.43 14.69V18.17L28.69 24l-7.75 5.83z" style="" fill="#252830"/><path class="st23" d="M41.98 11.25a6.924 6.924 0 0 0-4.92-2.06H10.93c-3.84.02-6.94 3.16-6.93 6.99v15.65c-.01 1.86.71 3.61 2.02 4.93a6.873 6.873 0 0 0 4.92 2.05h26.14c1.86-.01 3.6-.74 4.91-2.06a6.896 6.896 0 0 0 2.02-4.92V16.18c0-1.86-.72-3.61-2.03-4.93zm-1.22 20.58c0 .99-.38 1.93-1.08 2.63-.7.7-1.63 1.09-2.62 1.1H10.94c-.99 0-1.92-.39-2.62-1.1-.7-.7-1.08-1.64-1.08-2.64V16.17c0-.99.38-1.93 1.08-2.63.7-.71 1.63-1.09 2.62-1.1h26.12a3.72 3.72 0 0 1 3.7 3.74v15.65z" style="" fill="#252830"/></g></g></svg>